<svg xmlns="http://www.w3.org/2000/svg" width="48.326" height="48.325" viewBox="0 0 48.326 48.325"><defs><style>.a{fill:#7e8e95;}</style></defs><path class="a" d="M3.222,48.326H45.1A3.222,3.222,0,0,0,48.326,45.1V3.222A3.222,3.222,0,0,0,45.1,0H3.222A3.222,3.222,0,0,0,0,3.222V45.1A3.222,3.222,0,0,0,3.222,48.326ZM45.1,46.715H3.222A1.611,1.611,0,0,1,1.611,45.1V8.054h45.1V45.1A1.611,1.611,0,0,1,45.1,46.715ZM3.222,1.611H45.1a1.611,1.611,0,0,1,1.611,1.611V6.443H1.611V3.222A1.611,1.611,0,0,1,3.222,1.611Zm0,0"/><path class="a" d="M35.071,35.744a.805.805,0,1,0,0-1.611h-.008a.805.805,0,1,0,.008,1.611Zm0,0" transform="translate(-31.028 -30.911)"/><path class="a" d="M69.032,35.744a.805.805,0,0,0,0-1.611h-.008a.805.805,0,1,0,.008,1.611Zm0,0" transform="translate(-61.783 -30.911)"/><path class="a" d="M103.247,35.744a.805.805,0,0,0,0-1.611h0a.805.805,0,1,0,.008,1.611Zm0,0" transform="translate(-92.772 -30.911)"/><path class="a" d="M75.209,136.227H74.4V112.064a2.416,2.416,0,0,0-2.416-2.416H67.155a2.416,2.416,0,0,0-2.416,2.416v24.163H60.712V119.313A2.416,2.416,0,0,0,58.3,116.9H53.463a2.416,2.416,0,0,0-2.416,2.416v16.914H47.02v-9.665a2.416,2.416,0,0,0-2.416-2.416H39.771a2.416,2.416,0,0,0-2.416,2.416v9.665H35.744V103.2a.805.805,0,1,0-1.611,0v33.828a.805.805,0,0,0,.806.806H75.209a.805.805,0,1,0,0-1.611Zm-33.022,0v-5.638a.805.805,0,0,0-1.611,0v5.638H38.965v-9.665a.805.805,0,0,1,.806-.805H44.6a.805.805,0,0,1,.806.805v9.665Zm13.693,0V123.34a.806.806,0,0,0-1.611,0v12.887H52.657V119.313a.805.805,0,0,1,.806-.806H58.3a.805.805,0,0,1,.806.806v16.914Zm13.692,0V115.285a.805.805,0,1,0-1.611,0v20.941H66.35V112.064a.806.806,0,0,1,.806-.806h4.832a.805.805,0,0,1,.806.806v24.163Zm0,0" transform="translate(-30.911 -92.733)"/><path class="a" d="M102.911,120.053a.806.806,0,0,0,1.041-.463l3.683-9.576,6.519,3.911a1.611,1.611,0,0,0,2.237-.6l3.16-5.688,2.752,2.2a1.61,1.61,0,0,0,2.076-.054l4.792-4.258-.172.691a.8.8,0,0,0,.585.977.778.778,0,0,0,.2.024.805.805,0,0,0,.78-.61l.806-3.222a.764.764,0,0,0,.014-.112c0-.019.006-.037.006-.056a.788.788,0,0,0-.035-.265c-.006-.018-.014-.034-.022-.053a.785.785,0,0,0-.126-.218c-.006-.008-.008-.018-.015-.027l-.01-.006-.01-.014a.782.782,0,0,0-.212-.154l-.059-.027a.794.794,0,0,0-.26-.069h0a.81.81,0,0,0-.2.015l-4.027.805a.806.806,0,0,0,.316,1.579l1.112-.222-4.519,4.017-2.752-2.2a1.611,1.611,0,0,0-2.416.476l-3.16,5.688-6.519-3.912a1.611,1.611,0,0,0-2.332.805l-3.682,9.576a.805.805,0,0,0,.463,1.042Zm0,0" transform="translate(-92.729 -92.722)"/></svg>