<svg xmlns="http://www.w3.org/2000/svg" width="50.003" height="22.886" viewBox="0 0 50.003 22.886"><defs><style>.a{fill:#7e8e95;}</style></defs><g transform="translate(35.002 14.552)"><g transform="translate(0)"><path class="a" d="M72.433,287.834A4.167,4.167,0,1,1,68.266,292,4.172,4.172,0,0,1,72.433,287.834Zm0,6.667a2.5,2.5,0,1,0-2.5-2.5A2.5,2.5,0,0,0,72.433,294.5Z" transform="translate(-68.266 -287.834)"/></g></g><g transform="translate(0 0)"><path class="a" d="M.833,153.385v-5a.833.833,0,0,1,.57-.791l4.7-1.568a12.792,12.792,0,0,1,9.585-6.8l.03,0c9.935-1.373,17.394.868,22.182,6.663,3.564.052,7.2.8,9.343,2.167a4.08,4.08,0,0,1,1.828,3.261l.1,2.069a.834.834,0,0,1,.833.833v3.334a.834.834,0,0,1-.833.833H45.836a.839.839,0,0,1-.833-.843s0-.008,0-.013a5.833,5.833,0,0,0-11.667.022.758.758,0,0,1-.833.833h-15a.839.839,0,0,1-.833-.843s0-.008,0-.013A5.833,5.833,0,0,0,5,157.552a.758.758,0,0,1-.833.833H.833A.834.834,0,0,1,0,157.552v-3.334A.833.833,0,0,1,.833,153.385Zm22.5-7.917a.417.417,0,0,0,.417.417H34.619a.419.419,0,0,0,.276-.733,18.306,18.306,0,0,0-11.1-4.544.425.425,0,0,0-.459.42Zm-10.012,0a.417.417,0,0,0,.417.413h7.512a.417.417,0,0,0,.417-.417v-4.55a.418.418,0,0,0-.414-.421,38.325,38.325,0,0,0-5.29.378,14.039,14.039,0,0,0-2.405.636.417.417,0,0,0-.27.4Zm-4.349.413h2.266a.417.417,0,0,0,.417-.421l-.022-2.258a.42.42,0,0,0-.673-.328,11.019,11.019,0,0,0-2.318,2.333A.419.419,0,0,0,8.973,145.884Z" transform="translate(0 -138.833)"/></g><g transform="translate(6.667 14.552)"><path class="a" d="M362.567,287.834A4.167,4.167,0,1,1,358.4,292,4.172,4.172,0,0,1,362.567,287.834Zm0,6.667a2.5,2.5,0,1,0-2.5-2.5A2.5,2.5,0,0,0,362.567,294.5Z" transform="translate(-358.4 -287.834)"/></g></svg>