<svg xmlns="http://www.w3.org/2000/svg" width="30.178" height="34.528" viewBox="0 0 30.178 34.528"><defs><style>.a{fill:#7e8e95;}.b{fill:#d95252;stroke:#fff;stroke-miterlimit:10;stroke-width:2px;opacity:0;}.c{stroke:none;}.d{fill:none;}</style></defs><g transform="translate(0 -8.545)"><g transform="translate(0 9.213)"><g transform="translate(0 0)"><path class="a" d="M14.39,47.24a3.4,3.4,0,0,0,3.386-3.384H11A3.4,3.4,0,0,0,14.39,47.24Zm11-10.158V27.77A10.893,10.893,0,0,0,16.929,17.1V15.92a2.539,2.539,0,1,0-5.078,0V17.1A10.893,10.893,0,0,0,3.386,27.77v9.312L0,40.467V42.16H28.78V40.467Z" transform="translate(0 -13.38)"/></g><g class="b" transform="translate(19.002 1.332)"><ellipse class="c" cx="4.588" cy="4.588" rx="4.588" ry="4.588"/><ellipse class="d" cx="4.588" cy="4.588" rx="5.588" ry="5.588"/></g></g></g></svg>