<svg xmlns="http://www.w3.org/2000/svg" width="44.551" height="43.066" viewBox="0 0 44.551 43.066"><defs><style>.a{fill:#7e8e95;}</style></defs><g transform="translate(0 -8.533)"><g transform="translate(0 8.533)"><g transform="translate(0 0)"><path class="a" d="M79.028,418.134a2.228,2.228,0,1,0,2.228,2.228A2.228,2.228,0,0,0,79.028,418.134Zm0,2.97a.742.742,0,1,1,.742-.742A.742.742,0,0,1,79.028,421.1Z" transform="translate(-70.117 -382.493)"/><path class="a" d="M258.228,418.134a2.228,2.228,0,1,0,2.228,2.228A2.228,2.228,0,0,0,258.228,418.134Zm0,2.97a.742.742,0,1,1,.742-.742A.742.742,0,0,1,258.228,421.1Z" transform="translate(-233.724 -382.493)"/><path class="a" d="M317.219,257.485a.743.743,0,0,0,0-1.485h-.742a.742.742,0,1,0,0,1.485h.742Z" transform="translate(-288.261 -234.467)"/><path class="a" d="M41.952,36.749h1.114a1.487,1.487,0,0,0,1.485-1.485V31.551a1.487,1.487,0,0,0-1.485-1.485H41.952a3.321,3.321,0,0,0-1.856.566V15.216a2.23,2.23,0,0,0-2.228-2.228H34.155V11.132a2.6,2.6,0,0,0-5.2,0v1.856H27.473a2.967,2.967,0,0,0-2.865,2.228H20.79a2.23,2.23,0,0,0-2.228-2.228H5.2A3.717,3.717,0,0,0,1.485,16.7v9.33A1.467,1.467,0,0,0,0,27.507v16.31a1.477,1.477,0,0,0,.558,1.159l3.305,2.644a5.193,5.193,0,0,0,1.416,2.493H.742a.742.742,0,1,0,0,1.485H43.808a.741.741,0,0,0,.519-1.272,2.2,2.2,0,0,0,.224-.956V45.659a3.717,3.717,0,0,0-3.713-3.713H40.1V36.183A3.321,3.321,0,0,0,41.952,36.749Zm0-5.2h1.114v3.713H41.952a1.856,1.856,0,0,1,0-3.713ZM30.443,11.132a1.114,1.114,0,1,1,2.228,0v1.856H30.443V11.132ZM20.79,16.7H24.5v1.485H20.79V16.7Zm0,2.97H24.5V32.653L20.79,31.062V19.671Zm0,13.006L24.5,34.268v2.07L20.79,34.65ZM2.97,16.7A2.23,2.23,0,0,1,5.2,14.473H18.563a.743.743,0,0,1,.742.742v3.465L10.75,30.087,2.97,26.551V16.7Zm16.335,4.455v12.82l-7.171-3.259ZM3.773,45.648,1.485,43.817V27.507l.453.206h0l17.816,8.1.008,0L24.5,37.969V41.2a5.2,5.2,0,0,0-5.2,5.2h-5.2a5.194,5.194,0,0,0-10.334-.753ZM8.91,50.114A3.713,3.713,0,1,1,12.622,46.4,3.717,3.717,0,0,1,8.91,50.114Zm3.631,0a5.2,5.2,0,0,0,1.348-2.228h5.635a5.2,5.2,0,0,0,1.348,2.228Zm11.962,0A3.713,3.713,0,1,1,28.215,46.4,3.713,3.713,0,0,1,24.5,50.114Zm3.631,0a5.2,5.2,0,0,0,1.348-2.228h1.7v1.485a2.2,2.2,0,0,0,.137.742H28.133Zm3.052-4.455V46.4H29.7a5.2,5.2,0,0,0-3.713-4.979V15.958a1.487,1.487,0,0,1,1.485-1.485h10.4a.743.743,0,0,1,.742.742V16.7H31.185a2.973,2.973,0,0,0-2.97,2.97v7.118a1.475,1.475,0,0,0,.435,1.05l3.278,3.278a1.475,1.475,0,0,0,1.05.435h5.633V35.2l-2.3-1.842a1.488,1.488,0,0,0-.928-.326H29.7a1.487,1.487,0,0,0-1.485,1.485v2.97a2.973,2.973,0,0,0,2.97,2.97H38.61v1.485H34.9A3.717,3.717,0,0,0,31.185,45.659Zm7.425-27.473v11.88H32.978L29.7,26.788V19.671a1.487,1.487,0,0,1,1.485-1.485h7.425Zm0,18.92v1.871H31.185A1.487,1.487,0,0,1,29.7,37.491v-2.97h5.68ZM34.155,50.114h-.743a.743.743,0,0,1-.742-.742V47.886h1.485Zm2.97,0H35.64V47.886h1.485Zm2.97,0H38.61V47.886H40.1v2.228Zm2.97-.742a.743.743,0,0,1-.742.742h-.742V47.886h1.485v1.485Zm-2.228-5.94a2.23,2.23,0,0,1,2.228,2.228V46.4H32.67v-.742A2.23,2.23,0,0,1,34.9,43.431Z" transform="translate(0 -8.533)"/><path class="a" d="M34.525,257.4l4.455,2.228a.743.743,0,0,0,.664-1.328l-4.455-2.228a.743.743,0,1,0-.664,1.328Z" transform="translate(-31.145 -234.458)"/><path class="a" d="M34.525,291.531l4.455,2.228a.743.743,0,0,0,.664-1.328L35.19,290.2a.743.743,0,1,0-.664,1.328Z" transform="translate(-31.145 -265.621)"/><path class="a" d="M39.975,327.559a.743.743,0,0,0-.331-1l-4.455-2.228a.743.743,0,1,0-.664,1.328l4.455,2.228A.743.743,0,0,0,39.975,327.559Z" transform="translate(-31.145 -296.785)"/><path class="a" d="M359.143,138.019h1.485a.742.742,0,1,0,0-1.485h-1.485a.742.742,0,1,0,0,1.485Z" transform="translate(-327.214 -125.396)"/><path class="a" d="M410.342,138.035a.735.735,0,0,0,.742-.742,1.015,1.015,0,0,0-.015-.149.484.484,0,0,0-.045-.134.567.567,0,0,0-.067-.133,1.078,1.078,0,0,0-.089-.111.77.77,0,0,0-.676-.2.471.471,0,0,0-.134.044.419.419,0,0,0-.126.067c-.045.03-.082.059-.118.089l-.089.111a.573.573,0,0,0-.067.133.468.468,0,0,0-.044.134.967.967,0,0,0-.015.149.735.735,0,0,0,.743.742Z" transform="translate(-373.959 -125.412)"/></g></g></g></svg>