<svg xmlns="http://www.w3.org/2000/svg" width="44.276" height="44.276" viewBox="0 0 44.276 44.276"><defs><style>.a{fill:#0082ff;}</style></defs><g transform="translate(0 0)"><path class="a" d="M42.062,0H2.214A2.214,2.214,0,0,0,0,2.214V42.062a2.214,2.214,0,0,0,2.214,2.214H42.062a2.214,2.214,0,0,0,2.214-2.214V2.214A2.214,2.214,0,0,0,42.062,0ZM42.8,2.214V16.235H21.4a.738.738,0,0,1-.738-.738V1.476h21.4A.738.738,0,0,1,42.8,2.214Zm-28.78-.738V2.952a.738.738,0,0,0,1.476,0V1.476h3.69V15.5A2.214,2.214,0,0,0,21.4,17.711H42.8V21.4H39.849a.738.738,0,1,0,0,1.476H42.8v3.69H17.489a11.059,11.059,0,0,0,.959-3.69,7.373,7.373,0,0,0-8.117-7.342V1.476ZM1.476,17.711H5.808A7.352,7.352,0,0,0,3.69,22.876a11.059,11.059,0,0,0,.959,3.69H1.476Zm9.593-.738a5.91,5.91,0,0,1,5.9,5.9A12.176,12.176,0,0,1,15.7,27c-.006.013-.012.025-.017.038a81.57,81.57,0,0,1-4.614,8.474,81.462,81.462,0,0,1-4.614-8.473L6.437,27a12.16,12.16,0,0,1-1.271-4.12A5.91,5.91,0,0,1,11.069,16.973ZM10.448,37.3a.738.738,0,0,0,1.243,0c.35-.545,2.074-3.262,3.693-6.3h.851a.738.738,0,0,1,.738.738v7.379a.738.738,0,0,1-.738.738H5.9a.738.738,0,0,1-.738-.738V31.731a.738.738,0,0,1,.738-.738h.851C8.373,34.034,10.1,36.749,10.448,37.3ZM2.214,1.476H8.855V15.837a7.34,7.34,0,0,0-.981.4h-6.4V2.214A.738.738,0,0,1,2.214,1.476ZM42.062,42.8H2.214a.738.738,0,0,1-.738-.738V28.042H5.284c.221.488.46.982.708,1.476H5.9A2.214,2.214,0,0,0,3.69,31.731v7.379A2.214,2.214,0,0,0,5.9,41.325H16.235a2.214,2.214,0,0,0,2.214-2.214V31.731a2.214,2.214,0,0,0-2.214-2.214h-.089c.247-.494.484-.988.708-1.476H42.8V42.062A.738.738,0,0,1,42.062,42.8Z" transform="translate(0 0)"/><path class="a" d="M35.214,15.807H45.545a2.214,2.214,0,0,0,2.214-2.214V6.214A2.214,2.214,0,0,0,45.545,4H35.214A2.214,2.214,0,0,0,33,6.214v7.379A2.214,2.214,0,0,0,35.214,15.807Zm-.738-9.593a.738.738,0,0,1,.738-.738H45.545a.738.738,0,0,1,.738.738v7.379a.738.738,0,0,1-.738.738H35.214a.738.738,0,0,1-.738-.738Z" transform="translate(-8.648 -1.048)"/><path class="a" d="M35.641,40H31.214A2.214,2.214,0,0,0,29,42.214v7.379a2.214,2.214,0,0,0,2.214,2.214h4.428a2.214,2.214,0,0,0,2.214-2.214V42.214A2.214,2.214,0,0,0,35.641,40Zm.738,9.593a.738.738,0,0,1-.738.738H31.214a.738.738,0,0,1-.738-.738V42.214a.738.738,0,0,1,.738-.738h4.428a.738.738,0,0,1,.738.738Z" transform="translate(-7.6 -10.482)"/><path class="a" d="M49.9,40h-3.69A2.214,2.214,0,0,0,44,42.214v7.379a2.214,2.214,0,0,0,2.214,2.214H49.9a2.214,2.214,0,0,0,2.214-2.214V42.214A2.214,2.214,0,0,0,49.9,40Zm.738,9.593a.738.738,0,0,1-.738.738h-3.69a.738.738,0,0,1-.738-.738V42.214a.738.738,0,0,1,.738-.738H49.9a.738.738,0,0,1,.738.738Z" transform="translate(-11.531 -10.482)"/><path class="a" d="M13.428,33.855A4.428,4.428,0,1,0,9,29.428,4.428,4.428,0,0,0,13.428,33.855Zm0-7.379a2.952,2.952,0,1,1-2.952,2.952A2.952,2.952,0,0,1,13.428,26.476Z" transform="translate(-2.359 -6.552)"/><path class="a" d="M27.738,30.476H32.9A.738.738,0,1,0,32.9,29H27.738a.738.738,0,0,0,0,1.476Z" transform="translate(-7.076 -7.6)"/><path class="a" d="M19.738,15.641a.738.738,0,0,0,.738-.738V9.738a.738.738,0,1,0-1.476,0V14.9A.738.738,0,0,0,19.738,15.641Z" transform="translate(-4.979 -2.359)"/><path class="a" d="M40.738,30.476H45.9A.738.738,0,0,0,45.9,29H40.738a.738.738,0,1,0,0,1.476Z" transform="translate(-10.482 -7.6)"/></g></svg>